<svg width="26" height="26" viewBox="0 0 26 26" fill="none" xmlns="http://www.w3.org/2000/svg">
<path fill-rule="evenodd" clip-rule="evenodd" d="M7.79998 2.59998C7.45519 2.59998 7.12453 2.73694 6.88074 2.98074C6.63694 3.22453 6.49998 3.55519 6.49998 3.89998V5.19998H5.19998C4.51041 5.19998 3.84909 5.4739 3.3615 5.9615C2.8739 6.44909 2.59998 7.11041 2.59998 7.79998V20.8C2.59998 21.4895 2.8739 22.1509 3.3615 22.6385C3.84909 23.126 4.51041 23.4 5.19998 23.4H20.8C21.4895 23.4 22.1509 23.126 22.6385 22.6385C23.126 22.1509 23.4 21.4895 23.4 20.8V7.79998C23.4 7.11041 23.126 6.44909 22.6385 5.9615C22.1509 5.4739 21.4895 5.19998 20.8 5.19998H19.5V3.89998C19.5 3.55519 19.363 3.22453 19.1192 2.98074C18.8754 2.73694 18.5448 2.59998 18.2 2.59998C17.8552 2.59998 17.5245 2.73694 17.2807 2.98074C17.0369 3.22453 16.9 3.55519 16.9 3.89998V5.19998H9.09998V3.89998C9.09998 3.55519 8.96301 3.22453 8.71921 2.98074C8.47542 2.73694 8.14476 2.59998 7.79998 2.59998ZM7.79998 9.09998C7.45519 9.09998 7.12453 9.23694 6.88074 9.48074C6.63694 9.72453 6.49998 10.0552 6.49998 10.4C6.49998 10.7448 6.63694 11.0754 6.88074 11.3192C7.12453 11.563 7.45519 11.7 7.79998 11.7H18.2C18.5448 11.7 18.8754 11.563 19.1192 11.3192C19.363 11.0754 19.5 10.7448 19.5 10.4C19.5 10.0552 19.363 9.72453 19.1192 9.48074C18.8754 9.23694 18.5448 9.09998 18.2 9.09998H7.79998Z" fill="white"/>
</svg>
