<svg width="16" height="16" viewBox="0 0 16 16" fill="none" xmlns="http://www.w3.org/2000/svg">
<path d="M8.00004 1.33344C11.6867 1.33344 14.6667 4.3201 14.6667 8.0001C14.6667 11.6868 11.6867 14.6668 8.00004 14.6668C4.32004 14.6668 1.33337 11.6868 1.33337 8.0001C1.33337 4.3201 4.32004 1.33344 8.00004 1.33344ZM7.76671 4.6201C7.49337 4.6201 7.26671 4.8401 7.26671 5.1201V8.48677C7.26671 8.6601 7.36004 8.8201 7.51337 8.91344L10.1267 10.4734C10.2067 10.5201 10.2934 10.5468 10.3867 10.5468C10.5534 10.5468 10.72 10.4601 10.8134 10.3001C10.9534 10.0668 10.88 9.7601 10.64 9.61344L8.26671 8.2001V5.1201C8.26671 4.8401 8.04004 4.6201 7.76671 4.6201Z" fill="white"/>
</svg>
