<svg width="24" height="24" viewBox="0 0 24 24" fill="none" xmlns="http://www.w3.org/2000/svg">
<path fill-rule="evenodd" clip-rule="evenodd" d="M5.4721 3.46716C2.42133 5.73244 0.895947 6.86508 0.296842 8.53814C0.248782 8.67236 0.205554 8.80832 0.167246 8.94578C-0.310301 10.6592 0.272344 12.4919 1.43763 16.1572C2.60292 19.8225 3.18557 21.6551 4.55736 22.7544C4.6674 22.8426 4.78058 22.9266 4.89665 23.0064C6.34357 24 8.22904 24 12 24C15.771 24 17.6564 24 19.1034 23.0064C19.2194 22.9266 19.3326 22.8426 19.4426 22.7544C20.8144 21.6551 21.3971 19.8225 22.5624 16.1572C23.7277 12.4919 24.3103 10.6592 23.8328 8.94578C23.7944 8.80832 23.7512 8.67236 23.7032 8.53814C23.1041 6.86508 21.5787 5.73244 18.5279 3.46717C15.4771 1.20189 13.9518 0.0692427 12.2097 0.00392954C12.0699 -0.00130985 11.9301 -0.00130985 11.7903 0.00392954C10.0483 0.0692426 8.52286 1.20188 5.4721 3.46716ZM9.71205 17.6186C9.2382 17.6186 8.85407 18.0112 8.85407 18.4954C8.85407 18.9797 9.2382 19.3723 9.71205 19.3723H14.2879C14.7618 19.3723 15.1459 18.9797 15.1459 18.4954C15.1459 18.0112 14.7618 17.6186 14.2879 17.6186H9.71205Z" fill="#54595E"/>
</svg>
